<svg xmlns="http://www.w3.org/2000/svg" width="440.717" height="198.021" viewBox="0 0 440.717 198.021">
  <g id="Group_13" data-name="Group 13" transform="translate(-627.5 -411.603)">
    <path id="Path_5" data-name="Path 5" d="M909.064,440.986h6.307V417.65h7.212V411.6H901.776v6.047h7.289Z" transform="translate(-92.504 0)"/>
    <path id="Path_6" data-name="Path 6" d="M946.259,429.485h10.576v11.5h6.457V411.6h-6.457v11.5H946.259V411.6h-6.492v29.383h6.492Z" transform="translate(-105.317 0)"/>
    <path id="Path_7" data-name="Path 7" d="M1003.181,434.976H991.343v-5.491h11.838V423.1H991.343v-5.492h11.838V411.6H984.888v29.383h18.293Z" transform="translate(-120.535 0)"/>
    <path id="Path_8" data-name="Path 8" d="M870.968,681.47h-4.521l-10.71,8.779V681.47h-3.886v18.906h3.886v-9.122l10.815,9.122h4.865l-11.608-9.862Z" transform="translate(-75.666 -91.017)"/>
    <g id="Group_6" data-name="Group 6" transform="translate(801.085 590.453)">
      <path id="Path_9" data-name="Path 9" d="M905.4,691.889c0,4.548-2.247,5.949-6.029,5.949-3.966,0-6.055-1.613-6.055-5.685V681.471h-3.887v10.841c0,5.605,3.6,8.329,9.863,8.329,6.558,0,10-2.856,10-8.541v-10.63H905.4Z" transform="translate(-889.424 -681.471)"/>
    </g>
    <path id="Path_10" data-name="Path 10" d="M951.837,696.146l-5.552-14.675H943.27l-5.711,14.649-4.865-14.649h-3.94l6.531,18.906h3.808l5.579-14.12,5.367,14.12h3.808l6.637-18.906h-3.6Z" transform="translate(-101.603 -91.017)"/>
    <path id="Path_11" data-name="Path 11" d="M986.968,693.1l4.2-9.044,4.072,9.044Zm1.824-11.635-8.778,18.906h3.6l2.168-4.68h10.63l2.115,4.68h4.1L993.9,681.47Z" transform="translate(-118.891 -91.017)"/>
    <rect id="Rectangle_1" data-name="Rectangle 1" width="3.913" height="18.906" transform="translate(890.308 590.453)"/>
    <path id="Path_12" data-name="Path 12" d="M1040.16,684.247h7.377v16.13h3.914v-16.13h7.4v-2.776H1040.16Z" transform="translate(-139.177 -91.018)"/>
    <path id="Path_13" data-name="Path 13" d="M1216.082,459.079l-27.976,4.29-29.282,125.706,27.23,3.544,15.853-80.385h.373l17.531,85.421,27.6,4.662Z" transform="translate(-179.199 -16.012)"/>
    <g id="Group_7" data-name="Group 7" transform="translate(850.936 495.662)">
      <path id="Path_14" data-name="Path 14" d="M981.056,538.44a16.437,16.437,0,0,0-16.413,16.413,16.32,16.32,0,0,0,32.639,0,16.4,16.4,0,0,0-16.226-16.413" transform="translate(-964.643 -538.44)"/>
    </g>
    <path id="Path_15" data-name="Path 15" d="M977.082,508.263v-26.67H907.515V589.581h69.567V562.91H936.423V508.263Z" transform="translate(-94.44 -23.605)"/>
    <path id="Path_16" data-name="Path 16" d="M1082.132,528.251h-.187L1051.918,476.4l-25.925,1.119V586.442l28.536,1.679V533.847h.186l31.52,56.512,24.433,2.238V471.18l-28.536,2.984Z" transform="translate(-134.399 -20.093)"/>
    <path id="Path_17" data-name="Path 17" d="M658.833,459.079,627.5,602.317l27.6-4.662,17.531-85.421h.373l15.853,80.385,27.23-3.544L686.809,463.369Z" transform="translate(0 -16.012)"/>
    <g id="Group_8" data-name="Group 8" transform="translate(719.634 452.02)">
      <path id="Path_18" data-name="Path 18" d="M807.367,532.27l-12.31-.127V502.37l13.8.805c9.325.559,13.987,5.035,13.987,13.988s-5.222,15.293-15.48,15.107m28.163,17.345c4.663-2.984,16.6-12.683,16.6-35.25,0-23.873-13.8-36.742-40.846-38.607l-44.762-3.171V593.071l28.535-2.611V559.006c4.8-.021,9.4-.226,14.175-.624L822.288,588.6l31.519-1.679Z" transform="translate(-766.522 -472.588)"/>
    </g>
  </g>
</svg>
